<svg width="128" height="128" xmlns="http://www.w3.org/2000/svg">
 <g>
  <title>Layer 1</title>
  <polyline stroke-linecap="round" id="svg_1" points="-73.1344707608223,-2.5928855538368225 -73.1344707608223,-2.350169688463211 -73.1344707608223,-2.350169688463211 "  fill="none"/>
  <path d="m-45.22215,3.47501c0,-0.24272 0.04716,-0.14377 0.24271,0c3.27808,2.41001 1.5743,5.62575 3.39802,10.6795c1.59116,4.40931 2.60151,7.4723 5.82518,12.37851c1.99924,3.0427 4.83075,5.37829 6.79604,6.55333c3.35906,2.00838 5.81063,3.20211 7.76691,3.15531c5.66464,-0.13551 7.03876,-1.69901 7.76691,-2.18444l0.48543,-0.24271" id="svg_2"  fill="none"/>
  <ellipse ry="48.42182" rx="49.75675" id="svg_12" cy="64.27534" cx="62.05827" stroke-width="5"  fill="none"/>
  <ellipse ry="37.98486" rx="37.37845" id="svg_13" cy="64.75996" cx="59.8746" stroke-width="5"  fill="none"/>
  <ellipse ry="27.54825" rx="27.91232" id="svg_14" cy="66.45978" cx="59.38839" stroke-width="5"  fill="none"/>
  <ellipse ry="16.7474" rx="17.35419" id="svg_15" cy="67.30929" cx="57.81074" stroke-width="5"  fill="none"/>
 </g>

</svg>