<svg width="128" height="128" xmlns="http://www.w3.org/2000/svg">
 <g>
  <title>Layer 1</title>
  <polyline stroke-linecap="round" id="svg_1" points="-73.1344707608223,-2.5928855538368225 -73.1344707608223,-2.350169688463211 -73.1344707608223,-2.350169688463211 "  fill="none"/>
  <path d="m-45.22215,3.47501c0,-0.24272 0.04716,-0.14377 0.24271,0c3.27808,2.41001 1.5743,5.62575 3.39802,10.6795c1.59116,4.40931 2.60151,7.4723 5.82518,12.37851c1.99924,3.0427 4.83075,5.37829 6.79604,6.55333c3.35906,2.00838 5.81063,3.20211 7.76691,3.15531c5.66464,-0.13551 7.03876,-1.69901 7.76691,-2.18444l0.48543,-0.24271" id="svg_2"  fill="none"/>
  <path d="m52.10691,44.73671c-0.72815,-0.72815 -2.48122,-2.36017 -3.39802,-3.15531c-1.03725,-0.8996 -3.09163,-3.69835 -4.85432,-5.58247c-0.70351,-0.75197 -1.90518,-1.9797 -2.91259,-2.91259c-1.64187,-1.52043 -2.63668,-2.22008 -3.15531,-2.66987c-0.9168,-0.79514 -1.58958,-1.2027 -2.42716,-1.4563c-0.4646,-0.14067 -1.4563,0 -2.18444,0c-1.21358,0 -3.18697,0.11834 -4.36889,0.48543c-1.76528,0.54828 -2.71793,1.1245 -4.12617,1.94173c-0.7569,0.43925 -1.63081,1.53159 -2.42716,2.18444c-0.67677,0.55482 -1.82505,1.59178 -2.42716,2.42716c-0.95202,1.32085 -1.39345,2.11817 -1.94173,3.88345c-0.36709,1.18192 -0.96849,2.13354 -1.21358,3.88346c-0.13466,0.96148 -0.5086,2.66437 -0.72815,3.64074c-0.27152,1.20746 -0.24272,2.66988 -0.24272,3.64074c0,1.4563 0,1.94173 0,2.91259c0,0.72815 -0.07932,1.95097 0.24272,4.36889c0.19491,1.46346 0.51161,3.4175 0.72815,4.6116c0.37001,2.04049 0.97086,3.1553 1.69901,4.6116c0.97086,1.94173 1.62071,3.23807 3.15531,4.6116c1.15803,1.03649 3.06975,2.42049 4.12617,2.66988c0.47245,0.11153 1.23607,0.07677 2.18444,-0.24271c1.75174,-0.59012 2.89503,-1.02711 4.36889,-1.4563c0.96083,-0.27979 1.96874,-0.64199 3.64074,-1.21358c1.23679,-0.42281 3.13597,-1.01163 4.12617,-1.45629c1.19236,-0.53545 2.42716,-1.21358 3.15531,-1.4563c0.72815,-0.24271 1.21358,-0.48543 1.4563,-0.48543c0.24271,0 0.24271,0 0.24271,0c0,0 -0.27143,0.12819 -0.48543,0.24271c-1.54315,0.82587 -2.00067,3.03288 -3.15531,6.31062c-0.665,1.88778 -1.70098,4.52648 -2.18444,6.31061c-0.5118,1.88873 -0.48543,2.66988 -0.48543,3.39803c0,1.21358 -0.05749,2.02509 0.48543,3.39802c0.32182,0.8138 1.2678,2.06168 1.94173,2.91259c1.17697,1.48605 5.07953,3.68228 8.49506,5.09704c3.62271,1.50057 5.54735,2.53964 8.49506,3.39802c1.92167,0.55959 3.87588,1.09212 6.79604,1.21358c1.45503,0.06052 3.37868,-0.5262 4.36888,-0.97086c1.19236,-0.53545 1.98311,-0.93171 2.66988,-1.69901c1.03649,-1.15804 1.90484,-2.06045 3.15531,-4.36889c0.88043,-1.62532 1.52753,-2.8838 2.18444,-4.6116c0.54553,-1.43486 0.77262,-3.38997 0.97086,-4.6116c0.31345,-1.93157 0.34281,-3.15944 0.24271,-4.36888c-0.12177,-1.47136 -0.21642,-2.73069 -0.72815,-4.36889c-0.32365,-1.03608 -1.23674,-2.66438 -1.45629,-3.64074c-0.27151,-1.20746 -0.48544,-2.42715 -0.48544,-2.91259c0,-0.72814 0,-0.97086 0,-1.21358c0,-0.24271 0,-0.24271 0,-0.24271c0.48544,0.24271 0.97878,0.47375 1.69901,0.97086c1.71835,1.18603 4.30742,3.24544 5.33975,3.88345c0.46167,0.28532 0.73128,0.44655 0.97086,0.48543c0.75762,0.12295 2.65481,1.09181 4.12617,1.21358c2.17699,0.18018 3.39803,0 4.36889,0c0.48543,0 1.2236,-0.20564 2.18444,-0.48544c0.73692,-0.21459 1.70593,-0.71478 2.18444,-0.97086c1.7253,-0.92335 3.01065,-1.7989 4.12617,-2.66988c1.62332,-1.26745 2.28839,-2.28719 3.39803,-3.64073c0.87048,-1.06181 2.25571,-2.6035 3.1553,-3.64074c0.79514,-0.91681 1.27053,-1.97868 1.4563,-2.42716c0.26271,-0.63425 0.5257,-0.97198 0.48543,-1.69901c-0.12154,-2.19452 -0.29527,-3.91682 -0.72814,-5.82518c-0.16978,-0.74852 -0.42604,-1.97377 -0.97086,-2.91259c-0.43925,-0.75691 -1.01705,-2.15569 -1.4563,-2.91259c-1.08965,-1.87764 -1.59531,-3.21892 -2.66988,-4.85432c-0.66641,-1.01423 -1.14795,-1.99727 -2.18444,-3.1553c-0.68677,-0.7673 -1.77444,-1.82885 -2.18444,-2.18444c-0.57984,-0.50289 -0.92809,-0.60345 -1.4563,-0.72815c-0.94489,-0.22306 -2.18444,0 -4.12617,0c-0.97086,0 -2.42716,0.24271 -3.39803,0.48543c-0.97086,0.24271 -2.23074,0.34518 -3.1553,0.72815c-1.30753,0.5416 -2.18444,0.97086 -3.1553,1.4563c-0.48544,0.24272 -0.89938,0.32674 -1.4563,0.72815c-0.44028,0.31734 -1.23261,0.43442 -1.94173,0.72815c-0.50141,0.2077 -1.19698,0.50325 -1.45629,0.72815c-0.9168,0.79514 -1.99579,1.14659 -2.91259,1.94173c-0.51862,0.4498 -0.92809,0.84617 -1.4563,0.97086c-0.23622,0.05576 -0.27712,-0.24393 -0.24271,-0.72815c0.12167,-1.71194 0.92145,-3.41512 1.69901,-5.58247c1.14161,-3.18205 1.67901,-4.22007 1.94173,-4.85432c0.18577,-0.44848 0.07073,-0.98102 -0.24272,-2.91259c-0.19824,-1.22163 -0.48543,-2.66988 -0.72814,-3.15531c-0.24272,-0.48543 -0.25652,-0.7151 -0.48544,-0.97086c-1.03648,-1.15804 -1.85037,-2.52371 -3.64074,-4.12617c-1.15804,-1.03649 -2.40782,-1.73978 -3.39802,-2.18444c-1.19236,-0.53545 -3.40726,-1.42943 -4.85432,-1.94173c-1.95488,-0.69209 -3.16615,-1.15566 -4.6116,-1.4563c-0.97977,-0.20378 -2.17311,-0.60655 -4.12617,-0.72815c-1.21124,-0.07541 -2.43365,-0.05577 -2.66988,0c-1.05642,0.24939 -1.47533,0.43443 -2.18444,0.72815c-1.00283,0.41539 -1.50144,0.65352 -1.94173,0.97086c-0.55692,0.40141 -1.82505,1.34906 -2.42716,2.18444c-0.63468,0.88057 -1.11908,2.2231 -1.4563,2.91259c-0.38449,0.78614 -0.48543,1.21358 -0.48543,1.94173c0,0.48543 0,0.48543 0.24271,0.97086c0.24272,0.48543 0.44835,1.22361 0.72815,2.18444c0.21459,0.73693 0.61662,1.95471 0.72815,2.42716c0.24939,1.05642 0.69107,1.70904 0.97086,2.66988c0.21459,0.73692 0.38095,1.24586 0.72815,2.18444c0.1883,0.50902 0.48543,1.21358 0.72815,1.4563c0.24272,0.24272 0.48543,0.72815 0.48543,0.72815c0.24272,0.48543 0.27896,0.35783 0.48543,0.48543c0.46167,0.28533 0.48544,0.97086 0.72815,1.69901c0.24272,0.72815 0.52045,1.68303 0.72815,2.18444c0.29372,0.70911 0.48543,1.21358 0.72815,1.4563c0.24271,0.24272 0.24271,0.48543 0.24271,0.72815c0,0.24271 -0.09288,0.26119 0,0.48543c0.26271,0.63425 0.61662,0.98385 0.72815,1.4563c0.12469,0.52821 0.24271,0.48543 0.24271,0.72815c0,0 0,0.24272 0,0.24272l0,0l0,0" id="svg_11" stroke-width="5"  fill="none"/>
 </g>

</svg>