<svg width="128" height="128" xmlns="http://www.w3.org/2000/svg">
 <g>
  <title>Layer 1</title>
  <polyline stroke-linecap="round" id="svg_1" points="-73.1344707608223,-2.5928855538368225 -73.1344707608223,-2.350169688463211 -73.1344707608223,-2.350169688463211 " fill="none"/>
  <path d="m-45.22215,3.47501c0,-0.24272 0.04716,-0.14377 0.24271,0c3.27808,2.41001 1.5743,5.62575 3.39802,10.6795c1.59116,4.40931 2.60151,7.4723 5.82518,12.37851c1.99924,3.0427 4.83075,5.37829 6.79604,6.55333c3.35906,2.00838 5.81063,3.20211 7.76691,3.15531c5.66464,-0.13551 7.03876,-1.69901 7.76691,-2.18444l0.48543,-0.24271" id="svg_2" fill="none"/>
  <path stroke-width="5" d="m16.18497,49.59103c0.24272,-0.24272 0.24272,-0.48543 0.72815,-0.72815c0,0 0.48543,-0.48543 0.72815,-0.72815c0.24272,-0.24272 0.33662,-0.70815 0.97086,-0.97086c0.44848,-0.18577 0.95488,-0.52045 1.4563,-0.72815c0.70911,-0.29372 1.22361,-0.44835 2.18444,-0.72815c2.21078,-0.64378 3.89569,-1.15598 6.31061,-1.69901c1.95272,-0.4391 5.80904,-1.33361 8.98049,-1.69901c3.14383,-0.36222 4.85432,-0.48543 6.31061,-0.48543c2.18444,0 3.89184,-0.08545 6.79604,0.24271c1.70541,0.19271 3.9261,0.87548 5.09703,1.4563c1.26786,0.62889 2.95171,1.63746 4.12617,2.42716c2.01418,1.35432 3.09582,2.95462 5.33974,6.0679c1.41919,1.96901 2.42716,3.88345 3.39803,5.82518c0.48543,0.97086 1.04091,2.39519 1.45629,3.39802c0.88116,2.12733 1.53783,3.60207 2.42716,5.58247c1.07089,2.38471 1.40694,3.90606 2.42716,6.0679c0.46326,0.98164 1.56902,2.78261 2.42715,3.64074c0.85813,0.85812 2.15442,1.98358 3.1553,2.66987c1.88848,1.29489 3.62278,2.23973 7.28148,3.39803c2.41586,0.76482 4.35756,1.09199 6.31062,1.21358c0.72674,0.04524 1.45629,0 1.94173,0c0.72814,0 2.90891,0.28292 5.33974,0.48544c3.63622,0.30293 5.58247,0 7.52419,-0.24271l0.72815,-0.24272l0,-0.24271" id="svg_10" fill="none"/>
 </g>
</svg>